<svg xmlns="http://www.w3.org/2000/svg" xmlns:xlink="http://www.w3.org/1999/xlink" width="941" zoomAndPan="magnify" viewBox="0 0 705.75 809.999993" height="1080" preserveAspectRatio="xMidYMid meet" version="1.0"><path fill="#000000" d="M 281.488281 320.691406 C 284.328125 313.558594 293.933594 316.332031 292.863281 323.824219 C 292.21875 328.3125 289.757812 333.054688 287.550781 336.992188 C 285.75 340.191406 283.699219 343.316406 280.914062 345.71875 C 285.867188 350.335938 291.011719 354.785156 296.285156 359.011719 C 302.039062 363.621094 308.089844 367.871094 314.34375 371.777344 C 319.828125 375.199219 325.5625 378.234375 330.730469 382.144531 C 335.539062 385.773438 339.917969 390.148438 342.144531 395.851562 C 344.519531 401.925781 343.484375 408.199219 341.738281 414.269531 L 341.539062 414.953125 C 339.75 420.96875 336.660156 428.214844 340.949219 433.882812 C 343.128906 436.769531 346.300781 438.8125 349.042969 441.117188 C 351.476562 443.167969 353.761719 445.398438 355.855469 447.789062 C 360.425781 453.011719 364.140625 458.882812 366.488281 465.425781 L 366.699219 466.023438 C 368.707031 471.816406 370.175781 478.910156 367.460938 484.597656 C 366.683594 486.226562 364.167969 485.699219 363.730469 484.109375 C 362.742188 480.511719 362.796875 476.746094 361.96875 473.101562 C 361.109375 469.308594 359.675781 465.707031 357.804688 462.300781 C 354.183594 455.710938 349.28125 450.082031 343.484375 445.320312 L 341.75 443.914062 C 337.234375 440.207031 333.078125 436.277344 332.160156 430.144531 C 331.179688 423.582031 333.8125 417.332031 335.503906 411.121094 C 336.683594 406.792969 337.066406 402.644531 335.792969 398.734375 C 334.234375 401.269531 332.113281 403.683594 330.433594 405.828125 C 327.089844 410.113281 323.710938 414.367188 320.339844 418.632812 C 316.886719 423.003906 313.519531 427.445312 310.3125 432 C 308.875 434.039062 307.457031 436.089844 306.042969 438.144531 C 304.976562 439.683594 303.496094 441.226562 302.335938 442.800781 C 302.617188 443.640625 302.597656 444.613281 302.082031 445.300781 C 295.933594 453.605469 287.1875 436.277344 284.90625 431.90625 C 280.253906 422.988281 276.800781 413.523438 272.136719 404.609375 C 267.304688 395.375 261.804688 386.382812 255.671875 377.949219 C 251.964844 372.847656 247.808594 368.058594 244.414062 362.796875 C 236.421875 370.039062 225.902344 374.890625 216.246094 379.292969 C 205.632812 384.128906 194.605469 388.078125 183.71875 392.273438 L 180.507812 393.523438 C 161.753906 400.832031 142.546875 408.867188 126.960938 421.851562 C 108.644531 437.113281 97.8125 458.382812 89.746094 480.410156 C 80.460938 505.765625 72.777344 531.808594 65.617188 557.832031 C 61.953125 571.148438 58.476562 584.527344 55.207031 597.941406 C 52.324219 609.765625 49.9375 621.703125 46.605469 633.40625 C 53.367188 633.164062 61.078125 635.78125 66.851562 636.535156 C 93.164062 639.976562 119.125 645.464844 143.96875 654.960938 C 147.035156 656.132812 147.921875 659.195312 147.253906 661.675781 C 149.023438 661.175781 150.792969 660.671875 152.5625 660.175781 C 150.625 657.210938 151.550781 651.902344 151.703125 648.613281 L 151.710938 648.386719 C 151.867188 644.003906 152.34375 639.613281 152.652344 635.238281 C 153.242188 626.898438 154.003906 618.617188 155.023438 610.324219 L 155.28125 608.25 C 156.4375 599.226562 157.289062 590.148438 158.546875 581.144531 L 158.695312 580.113281 C 158.089844 577.808594 157.390625 575.53125 156.652344 573.265625 C 154.6875 567.226562 151.914062 561.542969 149.484375 555.695312 C 149.199219 555.011719 150.179688 554.613281 150.640625 555.027344 C 154.753906 558.722656 158.023438 563.417969 160.648438 568.324219 C 160.695312 568.09375 160.734375 567.859375 160.78125 567.628906 L 161.082031 566.15625 C 161.820312 562.5625 162.71875 558.78125 164.925781 555.867188 C 165.160156 555.558594 165.625 555.492188 165.847656 555.867188 C 167.960938 559.4375 168.195312 563.960938 168.519531 568.019531 C 168.886719 572.617188 168.933594 577.269531 168.871094 581.878906 C 168.742188 590.882812 168.109375 599.917969 167.601562 608.910156 C 167.105469 617.746094 166.128906 626.46875 164.871094 635.214844 L 164.632812 636.859375 C 164.019531 641.023438 163.515625 645.238281 162.707031 649.375 L 162.476562 650.5 C 162.042969 652.550781 161.777344 655.445312 160.914062 657.84375 C 183.101562 651.664062 205.324219 645.617188 227.589844 639.683594 C 243.679688 635.394531 259.789062 631.167969 275.890625 626.914062 C 276.742188 625.382812 277.796875 623.953125 279.117188 622.679688 C 283.46875 618.46875 289.234375 616.589844 294.519531 619.832031 C 294.953125 620.09375 294.988281 620.769531 294.519531 621.023438 C 293.507812 621.574219 292.496094 622.144531 291.496094 622.734375 L 301.164062 620.121094 C 308.390625 618.160156 315.707031 615.714844 323.101562 614.355469 C 336.726562 607.632812 351.378906 602.773438 365.726562 597.96875 L 367.417969 597.398438 C 374.765625 594.894531 382.367188 592.089844 389.960938 590.707031 C 395.519531 589.6875 402.042969 590.914062 404.28125 596.601562 C 407.109375 598.464844 409.769531 600.65625 412.339844 602.808594 C 414.195312 604.367188 415.976562 606.019531 417.785156 607.628906 L 418.121094 607.921875 C 419.601562 609.203125 420.773438 610.066406 421.136719 612.109375 C 421.324219 613.164062 420.652344 614.589844 419.351562 614.449219 C 415.367188 614.023438 412.125 609.40625 409.425781 606.652344 C 407.335938 604.523438 405.230469 602.320312 403.328125 599.980469 C 402.214844 600.582031 400.691406 600.472656 399.984375 599.136719 C 396.320312 592.199219 386.273438 597.007812 380.71875 598.652344 L 372.757812 601.007812 C 368.777344 602.1875 364.800781 603.371094 360.824219 604.578125 C 349.910156 607.886719 339.046875 611.59375 328.03125 614.636719 C 329.019531 615.71875 328.882812 617.644531 327.007812 618.375 C 318.386719 621.757812 308.925781 623.507812 299.96875 625.824219 C 294.3125 627.289062 288.660156 628.765625 283.007812 630.246094 C 282.039062 631.8125 281.34375 633.589844 281.050781 635.65625 C 279.972656 643.246094 282.050781 652.007812 284.078125 659.351562 L 284.382812 660.449219 C 286.050781 666.351562 288.5 673.589844 293.597656 677.320312 C 294.839844 678.226562 296.425781 678.859375 298.023438 679.003906 C 308.007812 673.871094 317.984375 668.738281 327.972656 663.617188 C 329.820312 662.664062 331.53125 663.953125 331.945312 665.480469 C 335.46875 664.902344 338.980469 663.992188 342.179688 662.910156 C 347.558594 661.085938 351.757812 657.605469 356.796875 655.199219 C 366.550781 650.542969 376.507812 656.261719 385.238281 660.605469 L 387.253906 661.59375 C 391.171875 663.492188 399.316406 667.140625 401.195312 661.949219 C 403.011719 656.925781 397.265625 651.558594 393.554688 649.296875 C 389.132812 646.601562 383.984375 645.160156 378.984375 643.960938 C 376.128906 643.273438 373.242188 642.714844 370.335938 642.304688 C 367.035156 641.839844 363.628906 641.910156 360.457031 640.839844 C 358.878906 640.3125 358.636719 637.808594 360.457031 637.394531 C 365.34375 636.285156 371.175781 637.496094 376.273438 638.734375 L 378.9375 639.390625 C 384.074219 640.652344 389.265625 642.230469 393.941406 644.742188 C 397.34375 646.570312 400.9375 649.347656 403.285156 652.746094 C 405.324219 650.855469 407.859375 650.917969 410.496094 651.621094 L 411.933594 652.015625 C 414.300781 652.675781 416.21875 653.125 418.523438 652.671875 C 418.828125 650.996094 419.140625 649.320312 419.476562 647.644531 C 422.761719 631.179688 426.363281 614.777344 430.332031 598.460938 C 437.183594 570.320312 445.113281 542.488281 454.054688 514.941406 L 454.949219 512.1875 C 457.011719 505.886719 458.671875 499.019531 461.992188 493.234375 C 465.136719 487.757812 470.171875 484.605469 476.160156 482.933594 C 482.949219 481.042969 490.085938 480.050781 497.011719 478.769531 C 498.554688 478.484375 500.105469 478.214844 501.652344 477.933594 C 500.347656 475.574219 499.371094 472.898438 498.492188 470.84375 L 498.335938 470.488281 C 496.449219 466.191406 494.753906 461.808594 493.113281 457.410156 L 491.890625 454.101562 C 488.933594 446.132812 485.882812 438.296875 481.722656 430.84375 C 477.347656 423 471.542969 416.589844 464.304688 411.28125 C 449.546875 400.460938 431.761719 394.941406 417.449219 383.375 C 416.867188 382.902344 417.617188 382.09375 418.210938 382.390625 C 427.875 387.242188 438.308594 390.542969 448.359375 394.492188 L 450.339844 395.273438 C 458.285156 398.421875 466.355469 401.847656 473.230469 406.941406 C 480.898438 412.621094 486.9375 419.675781 491.472656 428.0625 C 495.945312 436.335938 498.808594 445.589844 501.964844 454.421875 L 502.808594 456.777344 C 504.082031 460.308594 505.394531 463.828125 506.902344 467.261719 C 508.097656 469.988281 510.328125 473.097656 511.34375 476.214844 C 514.117188 475.730469 516.894531 475.25 519.671875 474.785156 C 579.84375 464.75 640.6875 458.855469 701.667969 457.128906 C 704.050781 457.058594 705.285156 459.335938 704.933594 461.414062 C 699.082031 495.984375 693.882812 530.675781 688.175781 565.277344 C 685.6875 580.378906 683.144531 595.46875 680.546875 610.546875 C 679.226562 618.1875 677.707031 625.800781 676.457031 633.453125 C 675.449219 639.632812 674.71875 645.859375 672.988281 651.898438 C 671.4375 657.3125 669.0625 662.527344 665.152344 666.65625 C 660.941406 671.109375 655.058594 673.265625 649.140625 674.28125 C 634.117188 676.863281 618.703125 677.917969 603.554688 679.640625 L 522.90625 688.808594 C 524.085938 699.511719 524.175781 710.046875 523.632812 720.875 L 523.324219 726.785156 C 523.074219 731.539062 522.773438 736.300781 522.089844 741.003906 C 521.234375 746.90625 518.53125 751.902344 514.546875 756.3125 C 510.894531 760.363281 506.453125 763.816406 502.136719 767.125 C 497.652344 770.5625 493.019531 773.878906 487.746094 776.007812 L 487.0625 776.277344 C 482.4375 778.082031 473.761719 780.875 467.441406 779.855469 C 468.269531 783.992188 469.867188 788.4375 468.449219 792.53125 C 467.792969 794.429688 465.304688 795.378906 463.78125 793.761719 C 460.761719 790.554688 460.523438 786.324219 459.808594 782.144531 C 459.066406 777.792969 458.425781 773.425781 457.855469 769.050781 C 456.753906 760.585938 455.894531 752.046875 455.632812 743.511719 C 455.363281 734.746094 455.46875 725.96875 455.941406 717.210938 C 456.183594 712.71875 456.484375 708.222656 457.054688 703.753906 C 457.300781 701.851562 457.550781 699.945312 457.835938 698.046875 C 457.9375 697.351562 458.054688 696.664062 458.175781 695.972656 L 450.9375 696.789062 C 439.839844 698.027344 428.734375 699.144531 417.558594 699.320312 C 416.234375 699.339844 415.214844 698.738281 414.550781 697.859375 C 413.84375 699.015625 412.605469 699.839844 410.835938 699.832031 C 395.230469 699.773438 380.691406 694.675781 366.492188 688.664062 C 359.339844 685.636719 352.292969 682.351562 345.128906 679.347656 C 338.4375 676.542969 331.285156 674.542969 324.753906 671.386719 L 307.601562 680.375 C 307.476562 680.816406 307.316406 681.238281 307.144531 681.585938 C 306.027344 683.863281 303.824219 685.097656 301.578125 686.03125 C 299.417969 686.925781 297.179688 687.203125 295.003906 686.976562 C 281.992188 693.789062 268.980469 700.59375 255.960938 707.382812 L 242.933594 714.164062 C 216.984375 727.664062 191.140625 741.382812 165.027344 754.566406 L 163.101562 755.535156 C 154.082031 760.050781 144.398438 764.632812 134.390625 768.050781 C 134.210938 770.582031 134.324219 773.042969 134.535156 775.722656 L 134.585938 776.304688 C 134.886719 779.472656 135.523438 783.4375 132.984375 785.691406 C 131.660156 786.863281 129.296875 786.871094 128.398438 785.101562 C 126.765625 781.898438 128.234375 776.84375 128.75 773.363281 C 128.933594 772.125 129.15625 770.851562 129.488281 769.617188 C 118.011719 773.027344 106.191406 774.683594 94.511719 772.765625 C 83.144531 770.902344 74.339844 763.75 67.238281 754.992188 C 59.746094 745.757812 54.425781 734.992188 51.566406 723.457031 C 48.316406 710.324219 48.105469 696.765625 48.179688 683.316406 C 48.261719 668.996094 48.792969 654.601562 50.535156 640.375 C 48.625 639.925781 46.507812 639.539062 44.578125 639.671875 C 43.621094 641.203125 41.765625 641.84375 40.089844 641.648438 C 36.445312 645.660156 45.691406 649.765625 48.644531 650.792969 C 49.667969 651.152344 49.558594 652.816406 48.375 652.765625 L 47.632812 652.730469 C 43.066406 652.488281 38.351562 651.707031 35.667969 647.46875 C 33.515625 644.074219 34.164062 640.046875 36.726562 637.277344 C 38.417969 621.28125 42.46875 605.707031 46.234375 590.101562 C 49.933594 574.785156 54.042969 559.570312 58.402344 544.425781 L 60.355469 537.652344 C 67.21875 513.910156 74.390625 489.976562 83.855469 467.179688 C 88.582031 455.800781 94.027344 444.625 101.40625 434.699219 C 108.289062 425.445312 116.410156 417.527344 125.746094 410.765625 C 143.152344 398.160156 163.574219 390.542969 183.640625 383.285156 L 184.539062 382.960938 C 194.941406 379.203125 205.3125 375.398438 215.589844 371.328125 C 224.683594 367.726562 233.394531 363.160156 242.441406 359.503906 C 242.148438 358.972656 241.867188 358.433594 241.59375 357.886719 L 241.425781 358.027344 C 241.398438 358.050781 241.367188 358.074219 241.339844 358.09375 C 240.429688 358.722656 239.089844 358.414062 238.339844 357.707031 C 236.21875 355.710938 236.9375 353.496094 238.351562 351.425781 L 238.535156 351.160156 C 240.261719 348.742188 241.804688 346.183594 243.402344 343.675781 L 244.398438 342.109375 C 247.078125 337.921875 249.890625 333.703125 253.460938 330.242188 C 255.117188 328.636719 256.929688 327.4375 258.847656 326.542969 C 258.683594 326.195312 260.121094 325.488281 260.53125 325.84375 C 266.605469 323.621094 273.597656 324.085938 280.222656 324.699219 M 519.003906 689.25 L 510.554688 690.210938 C 501.261719 691.265625 491.960938 692.289062 482.65625 693.300781 L 462.457031 695.496094 C 462.402344 696.644531 462.265625 697.769531 462.238281 698.640625 C 462.109375 703.121094 462.007812 707.605469 461.914062 712.085938 C 461.730469 721.066406 461.933594 730.058594 462.527344 739.023438 C 463.101562 747.710938 463.855469 756.398438 465.03125 765.027344 L 465.269531 766.753906 L 465.410156 767.660156 C 466.367188 767.75 467.308594 768.207031 468.089844 769.144531 C 469.800781 771.179688 475.988281 769.199219 478.402344 768.339844 C 482.378906 766.925781 486.121094 764.539062 489.574219 762.144531 C 492.945312 759.808594 495.980469 757.085938 498.902344 754.214844 L 501.285156 751.851562 C 503.660156 749.496094 506.039062 746.984375 507.496094 744.019531 C 509.464844 740 509.722656 735.058594 510.300781 730.679688 C 511.015625 725.292969 511.859375 719.90625 512.757812 714.542969 M 273.707031 632.695312 L 272.832031 632.925781 C 240.992188 641.378906 209.203125 650.082031 177.265625 658.160156 C 161.460938 662.15625 145.582031 665.867188 129.761719 669.789062 L 127.199219 670.429688 C 114.714844 673.578125 102.082031 677.375 92.523438 686.421875 C 92.167969 686.753906 91.65625 686.242188 91.988281 685.890625 C 102.292969 674.929688 116.945312 670.292969 131.011719 666.269531 C 133.613281 665.527344 136.21875 664.800781 138.820312 664.0625 C 119.683594 657.25 100.25 651.320312 80.367188 647.089844 C 75.246094 646.003906 70.066406 645.203125 64.949219 644.109375 C 61.382812 643.347656 57.898438 642.242188 54.367188 641.328125 L 51.589844 640.632812 L 51.554688 649.398438 C 51.507812 661.820312 51.53125 674.230469 52.164062 686.644531 L 52.285156 688.945312 C 53.023438 702.765625 54.179688 716.871094 59.085938 729.902344 C 63.074219 740.488281 69.433594 750.464844 77.746094 758.175781 C 81.953125 762.078125 86.476562 765.117188 92.066406 766.617188 C 97.257812 768.007812 102.699219 768.171875 108.035156 767.800781 C 133.628906 766.015625 156.414062 752.125 178.652344 740.621094 C 215.019531 721.808594 251.390625 703.003906 287.796875 684.261719 C 286.8125 683.59375 285.886719 682.816406 285.042969 681.945312 C 280.160156 676.910156 277.585938 670.015625 275.894531 663.335938 C 274.09375 656.226562 273.015625 648.605469 272.890625 641.269531 M 320.03125 691.527344 C 320.351562 691.351562 320.726562 691.570312 320.738281 691.933594 C 320.851562 694.710938 319.316406 697.449219 318.167969 699.953125 L 318.046875 700.21875 C 316.648438 703.320312 315.125 706.378906 313.542969 709.386719 C 310.386719 715.40625 307.105469 721.355469 303.683594 727.21875 C 296.796875 739.019531 289.144531 750.324219 280.101562 760.597656 C 278.058594 762.921875 274.699219 759.945312 276.007812 757.445312 C 282.328125 745.398438 289.699219 734.023438 297.28125 722.746094 C 301.082031 717.101562 304.875 711.449219 308.707031 705.828125 C 310.308594 703.484375 311.929688 701.144531 313.59375 698.84375 L 314.59375 697.46875 M 697.632812 464.027344 C 665.683594 464.992188 633.769531 467.074219 601.972656 470.335938 C 572.402344 473.371094 542.941406 477.410156 513.644531 482.445312 C 507.523438 483.496094 501.414062 484.589844 495.308594 485.726562 L 491.648438 486.414062 C 485.539062 487.570312 478.082031 488.046875 472.648438 491.308594 C 466.917969 494.742188 465.367188 501.921875 463.460938 507.839844 C 461.21875 514.804688 459.035156 521.789062 456.910156 528.785156 C 448.46875 556.578125 440.753906 584.609375 433.875 612.824219 C 430.460938 626.832031 427.433594 640.914062 424.238281 654.972656 C 421.402344 667.460938 418.273438 679.8125 415.003906 692.175781 C 415.40625 691.859375 415.902344 691.621094 416.496094 691.496094 C 432.730469 688.042969 449.304688 686.546875 465.78125 684.640625 L 467.378906 684.453125 C 484.425781 682.449219 501.472656 680.460938 518.527344 678.542969 L 631.453125 665.855469 C 638.117188 665.109375 645.25 665.007812 651.734375 663.222656 C 662.753906 660.183594 665.332031 647.875 667.183594 638.074219 L 667.238281 637.777344 C 672.8125 608.160156 677.25 578.285156 682.449219 548.59375 M 417.632812 657.746094 C 413.246094 657.457031 407.246094 653.445312 403.921875 653.730469 C 405.667969 656.660156 406.453125 659.996094 405.449219 663.566406 C 402.648438 673.488281 389.980469 668.355469 383.882812 665.324219 C 378.878906 662.835938 374.050781 659.792969 368.507812 658.628906 C 362.238281 657.3125 357.984375 659.800781 352.683594 662.675781 C 348.332031 665.035156 343.589844 666.730469 338.714844 667.605469 C 336.121094 668.074219 333.660156 668.125 331.199219 667.941406 C 331.054688 668.0625 330.886719 668.171875 330.695312 668.273438 L 329.398438 668.953125 C 335.277344 669.222656 341.265625 671.039062 346.734375 672.695312 C 352.40625 674.414062 357.972656 676.488281 363.511719 678.605469 L 368.953125 680.699219 C 382.390625 685.839844 396.296875 690.71875 410.835938 690.675781 C 411.882812 690.675781 412.738281 690.964844 413.414062 691.4375 M 393.101562 626.65625 C 397.433594 626.125 401.433594 626.695312 404.894531 629.511719 C 409.066406 632.910156 411.871094 638.542969 417.871094 638.914062 C 419.621094 639.019531 420.027344 641.476562 418.289062 641.992188 C 413.820312 643.3125 410.203125 640.898438 407.160156 637.765625 L 405.113281 635.628906 C 402.109375 632.515625 399.335938 630.109375 394.230469 630.296875 C 388.769531 630.496094 383.292969 631.757812 377.863281 632.398438 C 371.714844 633.125 365.5625 633.746094 359.394531 634.277344 C 359.105469 634.304688 359.058594 633.855469 359.324219 633.789062 L 366.238281 632.070312 M 388.921875 608.964844 L 389.636719 608.890625 C 395.925781 608.285156 401.675781 608.257812 407.296875 611.640625 L 408.371094 612.292969 C 413.4375 615.367188 418.949219 618.988281 422.117188 623.96875 C 422.632812 624.785156 421.777344 625.742188 420.910156 625.535156 C 414.824219 624.074219 410.375 619.613281 405.257812 616.273438 C 399.511719 612.527344 393.574219 613.144531 387.023438 613.726562 C 380.683594 614.292969 374.34375 615.066406 368.066406 616.121094 C 362.164062 617.113281 356.246094 618.675781 350.285156 619.175781 L 350.285156 619.167969 C 349.605469 619.164062 349.214844 618.144531 349.910156 617.796875 C 355.960938 614.777344 362.964844 613.347656 369.542969 611.972656 M 173.546875 438.089844 C 173.539062 437.59375 174.238281 437.40625 174.484375 437.835938 C 178.578125 445.03125 180.714844 453.847656 182.894531 461.773438 C 185.179688 470.074219 187.023438 478.460938 188.679688 486.910156 C 192.03125 504.015625 193.820312 521.023438 193.9375 538.457031 C 193.957031 540.945312 189.898438 541.609375 189.5 539.058594 C 186.867188 522.101562 184.339844 505.121094 181.683594 488.167969 C 180.347656 479.640625 178.792969 471.148438 177.304688 462.644531 M 214.0625 450.617188 C 213.761719 449.628906 215.203125 449.296875 215.574219 450.203125 C 223.789062 470.34375 226.570312 493.171875 221.296875 514.417969 C 220.488281 517.667969 215.726562 516.261719 216.332031 513.050781 M 319.996094 432.722656 C 319.957031 431.980469 320.921875 431.863281 321.285156 432.371094 C 325.175781 437.851562 326.792969 445.1875 333.617188 448.019531 C 337.027344 449.433594 340.863281 449.1875 343.875 451.574219 C 345.886719 453.171875 347.433594 455.691406 345.921875 458.109375 C 345.433594 458.890625 344.070312 459.28125 343.410156 458.433594 C 342.441406 457.195312 341.933594 455.714844 340.621094 454.785156 C 338.769531 453.480469 336.273438 453.398438 334.152344 452.785156 C 331.410156 451.992188 328.992188 450.597656 327.011719 448.53125 M 385.011719 341.351562 C 385.414062 341.148438 385.796875 341.277344 386.054688 341.625 C 386.417969 342.117188 386.375 342.597656 385.925781 342.9375 C 386.527344 344.160156 387.234375 347.226562 387.335938 347.671875 C 387.746094 349.480469 388.179688 351.277344 388.636719 353.074219 C 389.554688 356.699219 390.363281 360.351562 391.285156 363.976562 C 392.257812 367.820312 393.421875 371.621094 394.71875 375.367188 C 394.800781 375.609375 394.894531 375.859375 394.988281 376.109375 L 395.136719 376.488281 L 395.171875 376.429688 C 395.433594 376.015625 395.980469 376.308594 395.917969 376.746094 C 395.859375 377.144531 395.777344 377.542969 395.710938 377.945312 L 395.84375 378.300781 C 396.691406 380.578125 397.269531 382.976562 395.71875 384.984375 C 395.136719 385.738281 394.496094 386.179688 393.699219 386.316406 C 392.421875 390.519531 390.820312 394.652344 389.105469 398.617188 L 388.601562 399.773438 C 386.074219 405.5625 383.386719 411.273438 379.367188 416.199219 C 374.976562 421.578125 368.941406 425.25 365.117188 431.144531 C 363.339844 433.882812 362.101562 436.769531 361.097656 439.863281 L 360.722656 441.039062 C 360.003906 443.226562 359.183594 445.351562 357.128906 446.636719 C 356.472656 447.042969 355.488281 446.914062 354.960938 446.355469 C 350.746094 441.898438 355.160156 433.578125 357.699219 429.261719 C 361.234375 423.265625 366.351562 419.425781 371.472656 414.902344 C 376.992188 410.023438 380.511719 403.496094 383.917969 397.066406 C 386.003906 393.128906 388.019531 389.101562 390.140625 385.148438 C 387.925781 383.191406 387.214844 379.304688 386.464844 376.605469 L 386.394531 376.359375 C 385.15625 372.039062 384.167969 367.597656 383.546875 363.140625 C 382.945312 358.855469 382.695312 354.628906 382.855469 350.324219 L 382.902344 349.226562 M 393.25 361.75 C 392.761719 361.078125 393.570312 360.320312 394.242188 360.460938 C 398.324219 361.304688 402.316406 363.773438 405.980469 365.769531 L 406.371094 365.984375 C 409.296875 367.558594 412.242188 369.488281 413.777344 372.550781 C 415.449219 375.878906 415.308594 379.710938 415.082031 383.324219 L 415.0625 383.664062 C 414.78125 388.003906 414.734375 392.507812 413.816406 396.765625 C 413.347656 398.945312 411.371094 399.5625 409.683594 399.046875 C 407.671875 405.386719 402.027344 410.058594 397.902344 415.0625 C 392.644531 421.441406 393.632812 430.054688 394.183594 437.738281 C 394.40625 440.847656 390.53125 441.734375 388.535156 440.074219 L 383.941406 436.257812 C 383.175781 435.621094 382.410156 434.984375 381.648438 434.34375 C 380.992188 433.796875 380.347656 433.242188 379.707031 432.683594 L 378.746094 431.835938 C 378.320312 431.457031 376.445312 429.363281 375.898438 429.277344 C 374.570312 429.066406 371.414062 432.5625 370.335938 433.660156 L 370.199219 433.796875 C 368.164062 435.789062 366.328125 437.929688 364.617188 440.203125 C 364.300781 440.617188 363.6875 440.273438 363.914062 439.792969 C 365.445312 436.511719 367.226562 433.375 369.34375 430.4375 L 369.769531 429.855469 C 371.179688 427.957031 373.070312 424.609375 375.554688 424.050781 C 378.589844 423.367188 381.621094 426.410156 383.828125 428.097656 L 383.96875 428.199219 C 385.019531 428.988281 386.054688 429.789062 387.09375 430.597656 C 386.984375 424.875 387.707031 419.097656 390.664062 414.167969 C 392.75 410.6875 395.871094 408.113281 398.542969 405.128906 C 401.519531 401.800781 403.074219 397.710938 405.765625 394.25 C 406.113281 393.804688 406.589844 393.5625 407.109375 393.484375 C 407.210938 390.699219 407.625 387.886719 407.9375 385.132812 L 408.03125 384.308594 C 408.351562 381.316406 409.109375 377.660156 407.640625 374.855469 C 406.257812 372.207031 403.078125 370.335938 400.722656 368.542969 L 398.800781 367.050781 M 260.734375 330.09375 C 259.503906 330.804688 258.355469 331.691406 257.3125 332.796875 C 254.03125 336.273438 251.683594 340.601562 249.402344 344.765625 C 248.171875 347.003906 246.984375 349.273438 245.746094 351.511719 C 245.207031 352.484375 244.652344 353.445312 244.09375 354.410156 C 243.832031 354.851562 243.066406 355.730469 242.683594 356.273438 C 243.109375 356.867188 243.546875 357.453125 243.992188 358.03125 C 244.164062 358.25 255.933594 371.0625 260.039062 376.074219 C 266.320312 383.757812 271.9375 391.871094 276.738281 400.550781 C 281.441406 409.054688 285.019531 418.058594 289.375 426.726562 C 291.554688 431.066406 293.988281 435.375 297.09375 439.128906 C 297.214844 439.277344 297.339844 439.414062 297.460938 439.558594 C 298.644531 436.363281 301.679688 432.941406 303.171875 430.976562 L 303.3125 430.789062 C 306.691406 426.234375 310.261719 421.820312 313.910156 417.476562 C 317.242188 413.515625 320.660156 409.636719 324.15625 405.824219 L 325.472656 404.394531 C 327.910156 401.765625 331.007812 397.828125 334.578125 395.949219 C 334.195312 395.265625 333.753906 394.59375 333.242188 393.929688 C 329.898438 389.5625 325.171875 386.394531 320.507812 383.539062 L 317.484375 381.695312 C 306.082031 374.757812 294.859375 367.492188 284.960938 358.472656 C 279.722656 353.699219 274.558594 348.703125 270.160156 343.136719 L 268.601562 341.167969 M 279.757812 326.660156 C 274.417969 327.105469 268.652344 327 263.714844 328.738281 C 268.105469 332.878906 272.273438 337.355469 276.554688 341.566406 C 276.9375 338.71875 277.71875 335.902344 278.375 333.125 " fill-opacity="1" fill-rule="evenodd"/><path fill="#221e1f" d="M 199.8125 286.550781 C 109.71875 207.019531 202.144531 28.046875 319.359375 51.792969 C 331.222656 55.761719 343.269531 57.136719 355.558594 54.195312 C 417.46875 44.539062 468.117188 97.023438 465.5 157.75 C 465.933594 168.136719 465.851562 178.53125 464.730469 188.878906 C 463.441406 202.472656 459.933594 217.015625 452.109375 228.320312 C 452.015625 235.914062 447.542969 264.394531 446.824219 277.792969 L 446.6875 280.589844 C 445.976562 294.359375 444.433594 308.40625 438.375 320.960938 C 419.742188 354.695312 371.746094 361.933594 337.332031 352.105469 L 335.902344 351.636719 C 329.507812 349.511719 322.261719 346.683594 318.199219 341.332031 C 316.054688 338.507812 319.609375 334.898438 322.558594 335.667969 C 326.363281 336.65625 329.515625 338.972656 333.0625 340.617188 C 356.214844 350.839844 383.59375 347.417969 406.445312 337.871094 L 407.136719 337.578125 C 448.0625 320.980469 436.851562 261.9375 442.238281 228.269531 C 443.464844 185.519531 407.777344 156.40625 380.886719 128.128906 L 380.082031 127.234375 C 377.320312 124.171875 374.402344 121.1875 370.5625 120.535156 C 369.507812 123.726562 366.921875 126.4375 364.523438 128.765625 L 359.09375 134.625 C 353.667969 140.476562 348.226562 146.304688 342.710938 152.082031 C 315.925781 179.265625 288.632812 216.175781 247.34375 218.957031 C 249.882812 221.25 252.105469 223.875 254.769531 226.035156 C 255.890625 227.15625 254.742188 229.039062 253.238281 228.65625 C 250.433594 227.9375 248.636719 225.277344 246.796875 223.199219 C 224.496094 213.847656 206.179688 248.410156 225.074219 262.71875 C 232.082031 270.132812 252.566406 264.492188 247.828125 273.632812 C 253 289.832031 260.953125 306.117188 274.414062 316.953125 C 278.367188 319.933594 284.535156 321.441406 287.160156 325.832031 C 287.792969 326.886719 287.46875 328.617188 286.28125 329.175781 C 280.5625 331.839844 274.421875 327.359375 270.03125 323.988281 C 246.839844 369.273438 161.8125 319.238281 199.8125 286.550781 Z M 337.601562 65.261719 L 335.28125 64.808594 C 310.507812 59.910156 294.171875 55.0625 267.980469 63.917969 C 209.601562 83.398438 171.964844 145.457031 173.589844 205.777344 C 173.628906 240.042969 190.628906 283.738281 228.929688 288.601562 C 234.714844 289.0625 234.808594 298.039062 229.101562 297.765625 L 228.929688 297.757812 C 219.488281 297.167969 210.351562 293.75 202.558594 288.484375 C 192.109375 305.394531 202.582031 320.738281 218.863281 328.007812 C 235.363281 336.707031 253 333.933594 264.023438 318.566406 C 253.960938 307.398438 246.546875 290.707031 244.832031 275.902344 C 216.578125 286.851562 195.265625 246.484375 213.648438 225.074219 C 220.117188 215.863281 232.675781 210.101562 243.03125 216.640625 C 287.566406 199.523438 318.664062 163.136719 348.4375 127.492188 L 350.027344 125.6875 C 355.238281 119.804688 367.226562 106.519531 368.554688 104.800781 C 370.046875 102.871094 373.066406 104.609375 373.101562 106.683594 C 373.128906 108.15625 373.046875 109.652344 372.878906 111.144531 C 378.421875 114.71875 382.914062 120.140625 387.050781 125.148438 C 417.917969 149.351562 443.019531 174.695312 450.824219 213.09375 C 455.671875 207.4375 457.871094 200.015625 459.457031 192.929688 C 462.785156 146.164062 453.847656 90.167969 405.558594 69.882812 C 382.347656 58.378906 361.640625 63.652344 337.601562 65.261719 Z M 228.09375 240.886719 C 226.082031 239.09375 239.367188 238.878906 240.621094 240.28125 L 240.910156 240.378906 C 245.664062 242.050781 254.371094 247.4375 250.097656 253.027344 C 244 258.769531 239.75 241.722656 228.09375 240.886719 Z M 228.09375 240.886719 " fill-opacity="1" fill-rule="evenodd"/><path fill="#000000" d="M 376.910156 298.445312 C 372.410156 296.609375 368.394531 293.550781 365.457031 289.640625 C 364.4375 288.28125 364.171875 286.847656 364.386719 285.535156 C 364.628906 284.058594 365.5 282.722656 366.695312 281.824219 C 367.890625 280.921875 369.382812 280.480469 370.832031 280.703125 C 372.085938 280.902344 373.335938 281.589844 374.328125 283.015625 L 374.53125 283.300781 C 376.277344 285.660156 378.554688 287.59375 381.144531 288.84375 C 383.644531 290.046875 386.4375 290.609375 389.328125 290.28125 C 394.835938 289.660156 398.628906 286.683594 402.664062 282.644531 C 403.164062 282.132812 403.664062 281.609375 404.167969 281.074219 C 404.484375 280.585938 404.925781 280.277344 405.414062 280.113281 C 405.957031 279.933594 406.570312 279.945312 407.136719 280.136719 C 407.675781 280.328125 408.164062 280.6875 408.488281 281.164062 C 408.796875 281.617188 408.972656 282.179688 408.914062 282.824219 C 408.546875 287.011719 406.355469 290.746094 403.242188 293.679688 C 399.789062 296.941406 395.207031 299.195312 390.890625 299.984375 C 386.140625 300.855469 381.296875 300.230469 376.910156 298.445312 Z M 393.132812 233.847656 C 398.1875 236.921875 405.894531 244.078125 400.453125 251.695312 C 394.050781 258.40625 384.835938 250.707031 380.292969 247.230469 C 376.078125 244.53125 371.347656 251.46875 375.253906 254.617188 C 408.078125 278.898438 421.398438 234.652344 395.691406 230.242188 C 392.859375 229.753906 391.808594 232.902344 393.132812 233.847656 Z M 334.308594 205.605469 C 334.871094 198.679688 345.429688 197.105469 346.480469 203.960938 C 347.421875 210.101562 346.316406 215.742188 343.542969 221.273438 C 340.898438 226.550781 334.25 224.089844 333.746094 219.28125 C 333.074219 212.832031 333.964844 209.914062 334.308594 205.605469 Z M 414.703125 202.539062 C 416.175781 200.613281 418.300781 199.296875 420.847656 200.042969 C 428.804688 202.363281 426.457031 213.652344 423.664062 219.144531 C 422.144531 222.128906 417.238281 222.886719 415.019531 220.257812 C 411.402344 215.972656 409.671875 207.421875 414.269531 203.199219 C 414.390625 202.980469 414.53125 202.761719 414.703125 202.539062 Z M 343.433594 175.292969 L 344.6875 175.070312 C 348.582031 174.402344 353.414062 173.753906 356.164062 176.875 C 357.625 178.535156 358.128906 181.613281 356.164062 183.199219 C 352.714844 185.988281 348.902344 184.90625 344.765625 185.140625 C 341.359375 185.335938 338.085938 185.902344 334.804688 186.835938 C 327.605469 188.894531 321.738281 192.644531 315.589844 196.765625 C 314.785156 197.308594 313.960938 196.277344 314.347656 195.523438 C 317.898438 188.578125 324.773438 182.871094 331.664062 179.394531 C 335.339844 177.539062 339.363281 175.996094 343.433594 175.292969 Z M 407.449219 172.179688 L 408.40625 172.375 C 418.878906 174.5625 432.480469 178.929688 437.441406 189.207031 C 437.628906 190.660156 437.429688 190.96875 437.265625 191.175781 L 437.214844 191.242188 C 437.078125 191.414062 436.972656 191.65625 436.34375 191.851562 C 436.167969 191.808594 435.992188 191.769531 435.8125 191.71875 C 433.539062 191.125 431.742188 190.304688 430 189.453125 L 428.113281 188.527344 C 425.921875 187.453125 423.714844 186.417969 421.375 185.65625 C 416.378906 184.027344 411.238281 182.878906 406.019531 182.269531 C 404.886719 182.136719 403.800781 181.753906 402.941406 181.101562 C 402.121094 180.480469 401.5 179.621094 401.214844 178.480469 C 400.847656 177 400.953125 175.882812 401.746094 174.550781 C 402.34375 173.546875 403.199219 172.855469 404.179688 172.457031 C 405.179688 172.050781 406.316406 171.953125 407.449219 172.179688 Z M 407.449219 172.179688 " fill-opacity="1" fill-rule="evenodd"/><path fill="#000000" d="M 453.054688 237.925781 C 444.925781 246.316406 431.355469 248.722656 420.539062 244.222656 C 392.769531 232.632812 406.359375 196.472656 427.777344 186.761719 C 430.457031 186.097656 434.027344 184.515625 437.289062 184.160156 C 437.582031 184.015625 438.222656 184.429688 439 184.035156 C 462.617188 186.671875 467.996094 223.296875 453.054688 237.925781 M 363.484375 240.070312 C 354.367188 252.15625 337.414062 255.882812 323.566406 250.265625 C 296.207031 239.5 305.910156 207.4375 324.628906 194.867188 C 364.171875 180.023438 380.5 217.796875 363.484375 240.070312 M 304.171875 213.300781 C 304.148438 213.289062 304.121094 213.285156 304.097656 213.273438 C 304.242188 213.207031 304.382812 213.144531 304.527344 213.078125 C 304.484375 213.203125 304.433594 213.324219 304.386719 213.445312 C 304.316406 213.398438 304.253906 213.339844 304.171875 213.300781 M 471.878906 200.242188 C 469.644531 200.246094 466.421875 200.613281 464.574219 202.160156 C 460.015625 186.804688 443.195312 172.59375 428.566406 182.957031 C 417.046875 186.660156 408.5 194.867188 403.640625 205.78125 C 394.878906 200.574219 381.105469 202.796875 373.511719 209.683594 C 368.535156 193.257812 356.289062 187.507812 341.71875 186.660156 C 325.8125 184.054688 309.960938 199.488281 305.011719 211.871094 C 300.898438 211.402344 294.753906 210.09375 290.882812 212.628906 C 265.769531 206.050781 221.863281 202.421875 216.757812 206.078125 C 213.121094 207.472656 211.125 216.054688 216.207031 216.515625 C 220.632812 215.890625 215.6875 210.230469 220.152344 209.613281 C 243.9375 208.136719 267.027344 212.925781 290.558594 214.933594 C 292.664062 217.757812 299.449219 218.699219 303.070312 217.566406 C 297.367188 238.570312 309.683594 252.859375 328.132812 257.140625 C 356.699219 263.695312 381.554688 238.160156 374.085938 211.605469 C 382.738281 207.304688 392.691406 207.488281 402.121094 209.753906 C 386.367188 267.679688 479.742188 265.078125 465.160156 204.144531 C 474.863281 208.96875 476.972656 201.214844 471.878906 200.242188 " fill-opacity="1" fill-rule="evenodd"/><path fill="#000000" d="M 592.304688 550.207031 C 588.035156 546.203125 582.699219 544.066406 577.09375 544.066406 C 565.351562 544.066406 555.742188 553.679688 555.742188 565.429688 L 555.742188 594.808594 C 555.742188 596.410156 556.808594 597.476562 558.410156 597.476562 C 561.878906 597.476562 563.75 595.339844 565.082031 594.007812 C 566.152344 592.671875 566.683594 592.136719 567.75 592.136719 C 568.820312 592.136719 569.351562 592.671875 570.421875 594.007812 C 571.753906 595.339844 573.625 597.476562 577.09375 597.476562 C 580.5625 597.476562 582.429688 595.339844 583.765625 594.007812 C 584.832031 592.671875 585.367188 592.136719 586.433594 592.136719 C 587.5 592.136719 588.035156 592.671875 589.101562 594.007812 C 590.4375 595.339844 592.304688 597.476562 595.773438 597.476562 C 597.375 597.476562 598.445312 596.410156 598.445312 594.808594 L 598.445312 565.429688 C 598.445312 559.820312 596.308594 554.480469 592.304688 550.207031 Z M 593.105469 590.265625 C 592.570312 589.734375 592.039062 589.199219 591.503906 588.664062 C 591.503906 588.664062 591.503906 588.664062 591.238281 588.398438 C 590.972656 588.398438 590.972656 588.128906 590.703125 588.128906 C 590.703125 588.128906 590.4375 588.128906 590.4375 587.863281 C 590.171875 587.863281 590.171875 587.597656 589.902344 587.597656 L 589.636719 587.328125 C 589.371094 587.328125 589.371094 587.0625 589.101562 587.0625 C 588.835938 587.0625 588.835938 587.0625 588.570312 586.796875 C 588.300781 586.796875 588.300781 586.796875 588.035156 586.527344 C 587.769531 586.527344 587.769531 586.527344 587.5 586.527344 C 587.234375 586.527344 586.699219 586.527344 586.167969 586.527344 C 582.699219 586.527344 580.828125 588.664062 579.496094 590 C 578.425781 591.335938 577.894531 591.871094 576.824219 591.871094 C 575.757812 591.871094 575.222656 591.335938 574.15625 590 C 573.089844 588.933594 571.222656 586.796875 567.75 586.796875 C 564.28125 586.796875 562.414062 588.933594 561.078125 590.265625 L 561.078125 565.429688 C 561.078125 556.617188 568.285156 549.40625 577.09375 549.40625 C 581.363281 549.40625 585.367188 551.007812 588.300781 554.214844 C 591.503906 557.152344 593.105469 561.15625 593.105469 565.429688 Z M 593.105469 590.265625 " fill-opacity="1" fill-rule="nonzero"/><path fill="#000000" d="M 574.425781 568.101562 C 575.898438 568.101562 577.09375 566.90625 577.09375 565.429688 C 577.09375 563.957031 575.898438 562.761719 574.425781 562.761719 C 572.949219 562.761719 571.753906 563.957031 571.753906 565.429688 C 571.753906 566.90625 572.949219 568.101562 574.425781 568.101562 Z M 574.425781 568.101562 " fill-opacity="1" fill-rule="nonzero"/><path fill="#000000" d="M 587.769531 568.101562 C 589.242188 568.101562 590.4375 566.90625 590.4375 565.429688 C 590.4375 563.957031 589.242188 562.761719 587.769531 562.761719 C 586.292969 562.761719 585.097656 563.957031 585.097656 565.429688 C 585.097656 566.90625 586.292969 568.101562 587.769531 568.101562 Z M 587.769531 568.101562 " fill-opacity="1" fill-rule="nonzero"/><path fill="#000000" d="M 337.605469 65.261719 L 335.28125 64.808594 C 310.507812 59.910156 294.175781 55.0625 267.980469 63.917969 C 209.601562 83.398438 171.964844 145.457031 173.589844 205.777344 C 173.628906 240.042969 190.628906 283.738281 228.929688 288.601562 C 234.714844 289.0625 234.808594 298.039062 229.101562 297.765625 L 228.929688 297.757812 C 219.488281 297.167969 210.351562 293.75 202.558594 288.484375 C 192.109375 305.394531 202.582031 320.738281 218.867188 328.007812 C 235.363281 336.707031 253 333.933594 264.023438 318.566406 C 253.960938 307.398438 246.546875 290.707031 244.832031 275.902344 C 216.578125 286.851562 195.265625 246.484375 213.648438 225.074219 C 220.117188 215.863281 232.675781 210.101562 243.03125 216.640625 C 287.570312 199.523438 318.664062 163.136719 348.4375 127.492188 L 350.027344 125.6875 C 355.238281 119.804688 367.226562 106.519531 368.558594 104.800781 C 370.046875 102.871094 373.066406 104.609375 373.105469 106.683594 C 373.132812 108.15625 373.046875 109.652344 372.882812 111.144531 C 378.425781 114.71875 382.917969 120.140625 387.050781 125.148438 C 417.917969 149.351562 443.019531 174.695312 450.824219 213.09375 C 455.671875 207.4375 457.871094 200.015625 459.460938 192.929688 C 462.785156 146.167969 453.847656 90.167969 405.558594 69.882812 C 382.347656 58.378906 361.640625 63.652344 337.605469 65.261719 Z M 337.605469 65.261719 " fill-opacity="1" fill-rule="evenodd"/><path fill="#000000" d="M 228.09375 240.886719 C 226.082031 239.09375 239.367188 238.878906 240.621094 240.28125 L 240.910156 240.378906 C 245.664062 242.050781 254.371094 247.4375 250.097656 253.027344 C 244 258.769531 239.75 241.722656 228.09375 240.886719 Z M 228.09375 240.886719 " fill-opacity="1" fill-rule="evenodd"/></svg>