<svg xmlns="http://www.w3.org/2000/svg" xmlns:xlink="http://www.w3.org/1999/xlink" width="941" zoomAndPan="magnify" viewBox="0 0 705.75 809.999993" height="1080" preserveAspectRatio="xMidYMid meet" version="1.0"><path fill="#f2f2f2" d="M 281.488281 321.441406 C 284.328125 314.308594 293.933594 317.082031 292.863281 324.574219 C 292.21875 329.0625 289.757812 333.804688 287.550781 337.742188 C 285.75 340.941406 283.699219 344.066406 280.914062 346.46875 C 285.867188 351.085938 291.011719 355.535156 296.285156 359.757812 C 302.039062 364.367188 308.089844 368.621094 314.34375 372.523438 C 319.828125 375.949219 325.5625 378.984375 330.730469 382.890625 C 335.539062 386.523438 339.917969 390.894531 342.144531 396.601562 C 344.519531 402.675781 343.484375 408.945312 341.738281 415.015625 L 341.539062 415.703125 C 339.75 421.71875 336.660156 428.964844 340.949219 434.632812 C 343.128906 437.515625 346.300781 439.558594 349.042969 441.867188 C 351.476562 443.917969 353.761719 446.144531 355.855469 448.539062 C 360.425781 453.761719 364.140625 459.632812 366.488281 466.175781 L 366.699219 466.769531 C 368.707031 472.5625 370.175781 479.660156 367.460938 485.34375 C 366.683594 486.976562 364.167969 486.449219 363.730469 484.859375 C 362.742188 481.261719 362.796875 477.496094 361.96875 473.851562 C 361.109375 470.054688 359.675781 466.457031 357.804688 463.050781 C 354.183594 456.460938 349.28125 450.832031 343.484375 446.070312 L 341.75 444.664062 C 337.234375 440.957031 333.078125 437.027344 332.160156 430.894531 C 331.179688 424.332031 333.8125 418.082031 335.503906 411.867188 C 336.683594 407.542969 337.066406 403.390625 335.792969 399.484375 C 334.234375 402.019531 332.113281 404.429688 330.433594 406.578125 C 327.089844 410.863281 323.710938 415.117188 320.339844 419.382812 C 316.886719 423.753906 313.519531 428.195312 310.3125 432.75 C 308.875 434.789062 307.457031 436.839844 306.042969 438.894531 C 304.976562 440.433594 303.496094 441.976562 302.335938 443.550781 C 302.617188 444.390625 302.597656 445.359375 302.082031 446.050781 C 295.933594 454.351562 287.1875 437.027344 284.90625 432.652344 C 280.253906 423.738281 276.800781 414.273438 272.136719 405.359375 C 267.304688 396.125 261.804688 387.132812 255.671875 378.699219 C 251.964844 373.597656 247.808594 368.808594 244.414062 363.546875 C 236.421875 370.785156 225.902344 375.640625 216.246094 380.042969 C 205.632812 384.878906 194.605469 388.828125 183.71875 393.023438 L 180.507812 394.273438 C 161.753906 401.582031 142.546875 409.613281 126.960938 422.601562 C 108.644531 437.863281 97.8125 459.132812 89.746094 481.15625 C 80.460938 506.515625 72.777344 532.558594 65.617188 558.582031 C 61.953125 571.898438 58.476562 585.273438 55.207031 598.691406 C 52.324219 610.515625 49.9375 622.453125 46.605469 634.15625 C 53.367188 633.914062 61.078125 636.53125 66.851562 637.285156 C 93.164062 640.726562 119.125 646.214844 143.96875 655.710938 C 147.035156 656.882812 147.921875 659.945312 147.253906 662.425781 C 149.023438 661.925781 150.792969 661.421875 152.5625 660.925781 C 150.625 657.957031 151.550781 652.652344 151.703125 649.363281 L 151.710938 649.136719 C 151.867188 644.753906 152.34375 640.363281 152.652344 635.988281 C 153.242188 627.648438 154.003906 619.367188 155.023438 611.074219 L 155.28125 609 C 156.4375 599.976562 157.289062 590.898438 158.546875 581.894531 L 158.695312 580.863281 C 158.089844 578.558594 157.390625 576.28125 156.652344 574.015625 C 154.6875 567.976562 151.914062 562.292969 149.484375 556.445312 C 149.199219 555.757812 150.179688 555.363281 150.640625 555.773438 C 154.753906 559.472656 158.023438 564.167969 160.648438 569.074219 C 160.695312 568.84375 160.734375 568.609375 160.78125 568.378906 L 161.082031 566.90625 C 161.820312 563.3125 162.71875 559.53125 164.925781 556.617188 C 165.160156 556.308594 165.625 556.242188 165.847656 556.617188 C 167.960938 560.1875 168.195312 564.707031 168.519531 568.769531 C 168.886719 573.367188 168.933594 578.019531 168.871094 582.628906 C 168.742188 591.632812 168.109375 600.664062 167.601562 609.65625 C 167.105469 618.496094 166.128906 627.21875 164.871094 635.964844 L 164.632812 637.609375 C 164.019531 641.773438 163.515625 645.988281 162.707031 650.125 L 162.476562 651.25 C 162.042969 653.300781 161.777344 656.191406 160.914062 658.59375 C 183.101562 652.410156 205.324219 646.367188 227.589844 640.433594 C 243.679688 636.140625 259.789062 631.917969 275.890625 627.664062 C 276.742188 626.132812 277.796875 624.703125 279.117188 623.425781 C 283.46875 619.21875 289.234375 617.339844 294.519531 620.582031 C 294.953125 620.84375 294.988281 621.519531 294.519531 621.773438 C 293.507812 622.324219 292.496094 622.894531 291.496094 623.484375 L 301.164062 620.867188 C 308.390625 618.910156 315.707031 616.464844 323.101562 615.101562 C 336.726562 608.382812 351.378906 603.523438 365.726562 598.71875 L 367.417969 598.148438 C 374.765625 595.640625 382.367188 592.839844 389.960938 591.453125 C 395.519531 590.4375 402.042969 591.664062 404.28125 597.351562 C 407.109375 599.214844 409.769531 601.40625 412.339844 603.558594 C 414.195312 605.113281 415.976562 606.769531 417.785156 608.378906 L 418.121094 608.671875 C 419.601562 609.953125 420.773438 610.8125 421.136719 612.855469 C 421.324219 613.910156 420.652344 615.339844 419.351562 615.199219 C 415.367188 614.773438 412.125 610.15625 409.425781 607.402344 C 407.335938 605.273438 405.230469 603.070312 403.328125 600.730469 C 402.214844 601.332031 400.691406 601.222656 399.984375 599.886719 C 396.320312 592.949219 386.273438 597.757812 380.71875 599.402344 L 372.757812 601.753906 C 368.777344 602.9375 364.800781 604.117188 360.824219 605.324219 C 349.910156 608.636719 339.046875 612.34375 328.03125 615.386719 C 329.019531 616.46875 328.882812 618.394531 327.007812 619.125 C 318.386719 622.507812 308.925781 624.253906 299.96875 626.574219 C 294.3125 628.039062 288.660156 629.515625 283.007812 630.996094 C 282.039062 632.5625 281.34375 634.339844 281.050781 636.402344 C 279.972656 643.996094 282.050781 652.757812 284.078125 660.101562 L 284.382812 661.199219 C 286.050781 667.101562 288.5 674.339844 293.597656 678.070312 C 294.839844 678.976562 296.425781 679.609375 298.023438 679.753906 C 308.007812 674.621094 317.984375 669.488281 327.972656 664.367188 C 329.820312 663.414062 331.53125 664.703125 331.945312 666.230469 C 335.46875 665.652344 338.980469 664.742188 342.179688 663.65625 C 347.558594 661.832031 351.757812 658.355469 356.796875 655.949219 C 366.550781 651.292969 376.507812 657.011719 385.238281 661.355469 L 387.253906 662.34375 C 391.171875 664.242188 399.316406 667.890625 401.195312 662.699219 C 403.011719 657.675781 397.265625 652.308594 393.554688 650.046875 C 389.132812 647.351562 383.984375 645.910156 378.984375 644.710938 C 376.128906 644.023438 373.242188 643.460938 370.335938 643.054688 C 367.035156 642.589844 363.628906 642.660156 360.457031 641.589844 C 358.878906 641.0625 358.636719 638.558594 360.457031 638.144531 C 365.34375 637.035156 371.175781 638.242188 376.273438 639.484375 L 378.9375 640.140625 C 384.074219 641.402344 389.265625 642.980469 393.941406 645.492188 C 397.34375 647.320312 400.9375 650.097656 403.285156 653.496094 C 405.324219 651.605469 407.859375 651.667969 410.496094 652.367188 L 411.933594 652.765625 C 414.300781 653.425781 416.21875 653.875 418.523438 653.421875 C 418.828125 651.746094 419.140625 650.070312 419.476562 648.394531 C 422.761719 631.929688 426.363281 615.527344 430.332031 599.210938 C 437.183594 571.070312 445.113281 543.238281 454.054688 515.6875 L 454.949219 512.9375 C 457.011719 506.636719 458.671875 499.769531 461.992188 493.984375 C 465.136719 488.507812 470.171875 485.355469 476.160156 483.683594 C 482.949219 481.792969 490.085938 480.800781 497.011719 479.519531 C 498.554688 479.234375 500.105469 478.960938 501.652344 478.683594 C 500.347656 476.324219 499.371094 473.648438 498.492188 471.59375 L 498.335938 471.238281 C 496.449219 466.941406 494.753906 462.558594 493.113281 458.160156 L 491.890625 454.851562 C 488.933594 446.882812 485.882812 439.046875 481.722656 431.59375 C 477.347656 423.75 471.542969 417.339844 464.304688 412.03125 C 449.546875 401.210938 431.761719 395.691406 417.449219 384.125 C 416.867188 383.652344 417.617188 382.84375 418.210938 383.140625 C 427.875 387.992188 438.308594 391.292969 448.359375 395.242188 L 450.339844 396.023438 C 458.285156 399.171875 466.355469 402.597656 473.230469 407.6875 C 480.898438 413.371094 486.9375 420.425781 491.472656 428.8125 C 495.945312 437.085938 498.808594 446.339844 501.964844 455.171875 L 502.808594 457.527344 C 504.082031 461.054688 505.394531 464.578125 506.902344 468.011719 C 508.097656 470.738281 510.328125 473.847656 511.34375 476.964844 C 514.117188 476.480469 516.894531 476 519.671875 475.535156 C 579.84375 465.5 640.6875 459.601562 701.667969 457.878906 C 704.050781 457.808594 705.285156 460.085938 704.933594 462.164062 C 699.082031 496.734375 693.882812 531.425781 688.175781 566.023438 C 685.6875 581.128906 683.144531 596.214844 680.546875 611.296875 C 679.226562 618.9375 677.707031 626.550781 676.457031 634.199219 C 675.449219 640.378906 674.71875 646.609375 672.988281 652.648438 C 671.4375 658.058594 669.0625 663.277344 665.152344 667.40625 C 660.941406 671.859375 655.058594 674.015625 649.140625 675.03125 C 634.117188 677.613281 618.703125 678.667969 603.554688 680.390625 L 522.90625 689.558594 C 524.085938 700.261719 524.175781 710.796875 523.632812 721.625 L 523.324219 727.535156 C 523.074219 732.289062 522.773438 737.050781 522.089844 741.753906 C 521.234375 747.65625 518.53125 752.652344 514.546875 757.0625 C 510.894531 761.113281 506.453125 764.566406 502.136719 767.875 C 497.652344 771.3125 493.019531 774.628906 487.746094 776.757812 L 487.0625 777.027344 C 482.4375 778.832031 473.761719 781.625 467.441406 780.605469 C 468.269531 784.742188 469.867188 789.1875 468.449219 793.277344 C 467.792969 795.179688 465.304688 796.128906 463.78125 794.511719 C 460.761719 791.304688 460.523438 787.074219 459.808594 782.894531 C 459.066406 778.542969 458.425781 774.175781 457.855469 769.800781 C 456.753906 761.335938 455.894531 752.796875 455.632812 744.261719 C 455.363281 735.496094 455.46875 726.71875 455.941406 717.960938 C 456.183594 713.46875 456.484375 708.972656 457.054688 704.503906 C 457.300781 702.601562 457.550781 700.695312 457.835938 698.796875 C 457.9375 698.101562 458.054688 697.410156 458.175781 696.722656 L 450.9375 697.539062 C 439.839844 698.777344 428.734375 699.894531 417.558594 700.070312 C 416.234375 700.085938 415.214844 699.488281 414.550781 698.609375 C 413.84375 699.765625 412.605469 700.589844 410.835938 700.582031 C 395.230469 700.523438 380.691406 695.425781 366.492188 689.414062 C 359.339844 686.382812 352.292969 683.101562 345.128906 680.097656 C 338.4375 677.292969 331.285156 675.292969 324.753906 672.132812 L 307.601562 681.125 C 307.476562 681.566406 307.316406 681.984375 307.144531 682.335938 C 306.027344 684.613281 303.824219 685.847656 301.578125 686.78125 C 299.417969 687.675781 297.179688 687.953125 295.003906 687.726562 C 281.992188 694.539062 268.980469 701.34375 255.960938 708.132812 L 242.933594 714.914062 C 216.984375 728.414062 191.140625 742.132812 165.027344 755.316406 L 163.101562 756.28125 C 154.082031 760.800781 144.398438 765.382812 134.390625 768.800781 C 134.210938 771.332031 134.324219 773.792969 134.535156 776.472656 L 134.585938 777.054688 C 134.886719 780.222656 135.523438 784.1875 132.984375 786.441406 C 131.660156 787.613281 129.296875 787.621094 128.398438 785.851562 C 126.765625 782.648438 128.234375 777.59375 128.75 774.113281 C 128.933594 772.871094 129.15625 771.601562 129.488281 770.363281 C 118.011719 773.777344 106.191406 775.433594 94.511719 773.515625 C 83.144531 771.652344 74.339844 764.496094 67.238281 755.742188 C 59.746094 746.507812 54.425781 735.742188 51.566406 724.207031 C 48.316406 711.074219 48.105469 697.515625 48.179688 684.066406 C 48.261719 669.742188 48.792969 655.351562 50.535156 641.125 C 48.625 640.675781 46.507812 640.289062 44.578125 640.421875 C 43.621094 641.949219 41.765625 642.59375 40.089844 642.398438 C 36.445312 646.410156 45.691406 650.515625 48.644531 651.542969 C 49.667969 651.902344 49.558594 653.566406 48.375 653.515625 L 47.632812 653.480469 C 43.066406 653.238281 38.351562 652.457031 35.667969 648.21875 C 33.515625 644.820312 34.164062 640.796875 36.726562 638.027344 C 38.417969 622.03125 42.46875 606.457031 46.234375 590.851562 C 49.933594 575.535156 54.042969 560.316406 58.402344 545.175781 L 60.355469 538.398438 C 67.21875 514.660156 74.390625 490.726562 83.855469 467.929688 C 88.582031 456.546875 94.027344 445.375 101.40625 435.449219 C 108.289062 426.195312 116.410156 418.277344 125.746094 411.515625 C 143.152344 398.910156 163.574219 391.292969 183.640625 384.035156 L 184.539062 383.710938 C 194.941406 379.953125 205.3125 376.148438 215.589844 372.078125 C 224.683594 368.476562 233.394531 363.910156 242.441406 360.253906 C 242.148438 359.722656 241.867188 359.183594 241.59375 358.636719 L 241.425781 358.777344 C 241.398438 358.800781 241.367188 358.820312 241.339844 358.84375 C 240.429688 359.472656 239.089844 359.164062 238.339844 358.457031 C 236.21875 356.460938 236.9375 354.246094 238.351562 352.175781 L 238.535156 351.910156 C 240.261719 349.492188 241.804688 346.933594 243.402344 344.425781 L 244.398438 342.855469 C 247.078125 338.667969 249.890625 334.453125 253.460938 330.992188 C 255.117188 329.386719 256.929688 328.1875 258.847656 327.292969 C 258.683594 326.945312 260.121094 326.238281 260.53125 326.59375 C 266.605469 324.371094 273.597656 324.835938 280.222656 325.449219 M 519.003906 690 L 510.554688 690.960938 C 501.261719 692.015625 491.960938 693.039062 482.65625 694.050781 L 462.457031 696.246094 C 462.402344 697.394531 462.265625 698.519531 462.238281 699.390625 C 462.109375 703.871094 462.007812 708.351562 461.914062 712.835938 C 461.730469 721.816406 461.933594 730.808594 462.527344 739.773438 C 463.101562 748.460938 463.855469 757.148438 465.03125 765.777344 L 465.269531 767.503906 L 465.410156 768.410156 C 466.367188 768.5 467.308594 768.957031 468.089844 769.890625 C 469.800781 771.929688 475.988281 769.949219 478.402344 769.089844 C 482.378906 767.675781 486.121094 765.289062 489.574219 762.894531 C 492.945312 760.558594 495.980469 757.835938 498.902344 754.964844 L 501.285156 752.601562 C 503.660156 750.246094 506.039062 747.734375 507.496094 744.765625 C 509.464844 740.746094 509.722656 735.808594 510.300781 731.429688 C 511.015625 726.039062 511.859375 720.652344 512.757812 715.292969 M 273.707031 633.445312 L 272.832031 633.675781 C 240.992188 642.128906 209.203125 650.832031 177.265625 658.910156 C 161.460938 662.90625 145.582031 666.617188 129.761719 670.539062 L 127.199219 671.179688 C 114.714844 674.328125 102.082031 678.125 92.523438 687.167969 C 92.167969 687.503906 91.65625 686.992188 91.988281 686.636719 C 102.292969 675.679688 116.945312 671.042969 131.011719 667.019531 C 133.613281 666.277344 136.21875 665.550781 138.820312 664.8125 C 119.683594 658 100.25 652.070312 80.367188 647.839844 C 75.246094 646.753906 70.066406 645.953125 64.949219 644.859375 C 61.382812 644.09375 57.898438 642.992188 54.367188 642.078125 L 51.589844 641.382812 L 51.554688 650.148438 C 51.507812 662.566406 51.53125 674.980469 52.164062 687.394531 L 52.285156 689.695312 C 53.023438 703.515625 54.179688 717.621094 59.085938 730.648438 C 63.074219 741.238281 69.433594 751.214844 77.746094 758.925781 C 81.953125 762.828125 86.476562 765.863281 92.066406 767.367188 C 97.257812 768.757812 102.699219 768.921875 108.035156 768.550781 C 133.628906 766.765625 156.414062 752.871094 178.652344 741.371094 C 215.019531 722.558594 251.390625 703.753906 287.796875 685.011719 C 286.8125 684.339844 285.886719 683.566406 285.042969 682.695312 C 280.160156 677.660156 277.585938 670.765625 275.894531 664.085938 C 274.09375 656.976562 273.015625 649.355469 272.890625 642.019531 M 320.03125 692.277344 C 320.351562 692.101562 320.726562 692.320312 320.738281 692.683594 C 320.851562 695.460938 319.316406 698.199219 318.167969 700.703125 L 318.046875 700.96875 C 316.648438 704.070312 315.125 707.128906 313.542969 710.136719 C 310.386719 716.152344 307.105469 722.105469 303.683594 727.96875 C 296.796875 739.769531 289.144531 751.074219 280.101562 761.347656 C 278.058594 763.671875 274.699219 760.695312 276.007812 758.195312 C 282.328125 746.148438 289.699219 734.769531 297.28125 723.496094 C 301.082031 717.851562 304.875 712.199219 308.707031 706.578125 C 310.308594 704.234375 311.929688 701.894531 313.59375 699.59375 L 314.59375 698.21875 M 697.632812 464.777344 C 665.683594 465.742188 633.769531 467.824219 601.972656 471.085938 C 572.402344 474.121094 542.941406 478.160156 513.644531 483.191406 C 507.523438 484.246094 501.414062 485.335938 495.308594 486.476562 L 491.648438 487.164062 C 485.539062 488.320312 478.082031 488.796875 472.648438 492.058594 C 466.917969 495.492188 465.367188 502.671875 463.460938 508.589844 C 461.21875 515.554688 459.035156 522.535156 456.910156 529.535156 C 448.46875 557.328125 440.753906 585.359375 433.875 613.574219 C 430.460938 627.582031 427.433594 641.664062 424.238281 655.71875 C 421.402344 668.210938 418.273438 680.558594 415.003906 692.925781 C 415.40625 692.609375 415.902344 692.371094 416.496094 692.246094 C 432.730469 688.792969 449.304688 687.296875 465.78125 685.386719 L 467.378906 685.203125 C 484.425781 683.199219 501.472656 681.210938 518.527344 679.292969 L 631.453125 666.605469 C 638.117188 665.859375 645.25 665.757812 651.734375 663.972656 C 662.753906 660.933594 665.332031 648.625 667.183594 638.824219 L 667.238281 638.527344 C 672.8125 608.910156 677.25 579.035156 682.449219 549.34375 M 417.632812 658.496094 C 413.246094 658.207031 407.246094 654.191406 403.921875 654.480469 C 405.667969 657.410156 406.453125 660.746094 405.449219 664.316406 C 402.648438 674.234375 389.980469 669.101562 383.882812 666.070312 C 378.878906 663.585938 374.050781 660.542969 368.507812 659.375 C 362.238281 658.058594 357.984375 660.550781 352.683594 663.425781 C 348.332031 665.785156 343.589844 667.480469 338.714844 668.355469 C 336.121094 668.824219 333.660156 668.875 331.199219 668.691406 C 331.054688 668.8125 330.886719 668.921875 330.695312 669.023438 L 329.398438 669.703125 C 335.277344 669.972656 341.265625 671.789062 346.734375 673.445312 C 352.40625 675.164062 357.972656 677.238281 363.511719 679.355469 L 368.953125 681.449219 C 382.390625 686.585938 396.296875 691.46875 410.835938 691.425781 C 411.882812 691.425781 412.738281 691.710938 413.414062 692.183594 M 393.101562 627.40625 C 397.433594 626.875 401.433594 627.445312 404.894531 630.261719 C 409.066406 633.660156 411.871094 639.289062 417.871094 639.664062 C 419.621094 639.769531 420.027344 642.226562 418.289062 642.742188 C 413.820312 644.0625 410.203125 641.648438 407.160156 638.515625 L 405.113281 636.378906 C 402.109375 633.265625 399.335938 630.859375 394.230469 631.046875 C 388.769531 631.246094 383.292969 632.507812 377.863281 633.148438 C 371.714844 633.875 365.5625 634.496094 359.394531 635.027344 C 359.105469 635.054688 359.058594 634.605469 359.324219 634.539062 L 366.238281 632.820312 M 388.921875 609.714844 L 389.636719 609.640625 C 395.925781 609.03125 401.675781 609.007812 407.296875 612.390625 L 408.371094 613.042969 C 413.4375 616.117188 418.949219 619.738281 422.117188 624.71875 C 422.632812 625.535156 421.777344 626.492188 420.910156 626.285156 C 414.824219 624.824219 410.375 620.363281 405.257812 617.023438 C 399.511719 613.277344 393.574219 613.894531 387.023438 614.476562 C 380.683594 615.042969 374.34375 615.816406 368.066406 616.871094 C 362.164062 617.863281 356.246094 619.425781 350.285156 619.925781 L 350.285156 619.914062 C 349.605469 619.914062 349.214844 618.894531 349.910156 618.546875 C 355.960938 615.527344 362.964844 614.097656 369.542969 612.722656 M 173.546875 438.839844 C 173.539062 438.34375 174.238281 438.15625 174.484375 438.585938 C 178.578125 445.78125 180.714844 454.597656 182.894531 462.523438 C 185.179688 470.824219 187.023438 479.210938 188.679688 487.660156 C 192.03125 504.765625 193.820312 521.773438 193.9375 539.207031 C 193.957031 541.695312 189.898438 542.359375 189.5 539.808594 C 186.867188 522.847656 184.339844 505.871094 181.683594 488.917969 C 180.347656 480.390625 178.792969 471.894531 177.304688 463.394531 M 214.0625 451.367188 C 213.761719 450.375 215.203125 450.046875 215.574219 450.949219 C 223.789062 471.09375 226.570312 493.921875 221.296875 515.167969 C 220.488281 518.417969 215.726562 517.011719 216.332031 513.800781 M 319.996094 433.472656 C 319.957031 432.730469 320.921875 432.613281 321.285156 433.121094 C 325.175781 438.601562 326.792969 445.9375 333.617188 448.769531 C 337.027344 450.179688 340.863281 449.9375 343.875 452.324219 C 345.886719 453.921875 347.433594 456.441406 345.921875 458.859375 C 345.433594 459.640625 344.070312 460.03125 343.410156 459.179688 C 342.441406 457.945312 341.933594 456.464844 340.621094 455.535156 C 338.769531 454.230469 336.273438 454.148438 334.152344 453.535156 C 331.410156 452.738281 328.992188 451.347656 327.011719 449.28125 M 385.011719 342.101562 C 385.414062 341.898438 385.796875 342.027344 386.054688 342.375 C 386.417969 342.867188 386.375 343.347656 385.925781 343.6875 C 386.527344 344.910156 387.234375 347.976562 387.335938 348.421875 C 387.746094 350.230469 388.179688 352.027344 388.636719 353.824219 C 389.554688 357.449219 390.363281 361.101562 391.285156 364.726562 C 392.257812 368.570312 393.421875 372.371094 394.71875 376.117188 C 394.800781 376.359375 394.894531 376.609375 394.988281 376.859375 L 395.136719 377.238281 L 395.171875 377.179688 C 395.433594 376.765625 395.980469 377.058594 395.917969 377.496094 C 395.859375 377.894531 395.777344 378.292969 395.710938 378.695312 L 395.84375 379.050781 C 396.691406 381.328125 397.269531 383.726562 395.71875 385.734375 C 395.136719 386.488281 394.496094 386.929688 393.699219 387.0625 C 392.421875 391.269531 390.820312 395.402344 389.105469 399.363281 L 388.601562 400.523438 C 386.074219 406.3125 383.386719 412.019531 379.367188 416.949219 C 374.976562 422.328125 368.941406 426 365.117188 431.894531 C 363.339844 434.632812 362.101562 437.515625 361.097656 440.613281 L 360.722656 441.789062 C 360.003906 443.976562 359.183594 446.101562 357.128906 447.386719 C 356.472656 447.792969 355.488281 447.664062 354.960938 447.105469 C 350.746094 442.648438 355.160156 434.328125 357.699219 430.011719 C 361.234375 424.015625 366.351562 420.175781 371.472656 415.648438 C 376.992188 410.769531 380.511719 404.246094 383.917969 397.816406 C 386.003906 393.875 388.019531 389.851562 390.140625 385.898438 C 387.925781 383.941406 387.214844 380.054688 386.464844 377.355469 L 386.394531 377.109375 C 385.15625 372.785156 384.167969 368.347656 383.546875 363.890625 C 382.945312 359.605469 382.695312 355.378906 382.855469 351.070312 L 382.902344 349.972656 M 393.25 362.5 C 392.761719 361.828125 393.570312 361.070312 394.242188 361.210938 C 398.324219 362.054688 402.316406 364.519531 405.980469 366.519531 L 406.371094 366.734375 C 409.296875 368.308594 412.242188 370.238281 413.777344 373.300781 C 415.449219 376.628906 415.308594 380.460938 415.082031 384.074219 L 415.0625 384.414062 C 414.78125 388.75 414.734375 393.257812 413.816406 397.515625 C 413.347656 399.695312 411.371094 400.308594 409.683594 399.796875 C 407.671875 406.136719 402.027344 410.808594 397.902344 415.8125 C 392.644531 422.191406 393.632812 430.804688 394.183594 438.488281 C 394.40625 441.597656 390.53125 442.480469 388.535156 440.824219 L 383.941406 437.007812 C 383.175781 436.371094 382.410156 435.734375 381.648438 435.09375 C 380.992188 434.546875 380.347656 433.992188 379.707031 433.429688 L 378.746094 432.585938 C 378.320312 432.207031 376.445312 430.113281 375.898438 430.027344 C 374.570312 429.816406 371.414062 433.3125 370.335938 434.410156 L 370.199219 434.546875 C 368.164062 436.539062 366.328125 438.679688 364.617188 440.953125 C 364.300781 441.367188 363.6875 441.023438 363.914062 440.539062 C 365.445312 437.261719 367.226562 434.125 369.34375 431.1875 L 369.769531 430.601562 C 371.179688 428.707031 373.070312 425.359375 375.554688 424.800781 C 378.589844 424.117188 381.621094 427.15625 383.828125 428.847656 L 383.96875 428.949219 C 385.019531 429.738281 386.054688 430.539062 387.09375 431.34375 C 386.984375 425.625 387.707031 419.847656 390.664062 414.914062 C 392.75 411.4375 395.871094 408.863281 398.542969 405.878906 C 401.519531 402.550781 403.074219 398.460938 405.765625 395 C 406.113281 394.550781 406.589844 394.3125 407.109375 394.234375 C 407.210938 391.449219 407.625 388.636719 407.9375 385.882812 L 408.03125 385.058594 C 408.351562 382.066406 409.109375 378.410156 407.640625 375.605469 C 406.257812 372.957031 403.078125 371.085938 400.722656 369.292969 L 398.800781 367.800781 M 260.734375 330.84375 C 259.503906 331.554688 258.355469 332.4375 257.3125 333.542969 C 254.03125 337.023438 251.683594 341.351562 249.402344 345.515625 C 248.171875 347.753906 246.984375 350.023438 245.746094 352.261719 C 245.207031 353.234375 244.652344 354.195312 244.09375 355.15625 C 243.832031 355.601562 243.066406 356.480469 242.683594 357.023438 C 243.109375 357.617188 243.546875 358.203125 243.992188 358.78125 C 244.164062 359 255.933594 371.8125 260.039062 376.824219 C 266.320312 384.503906 271.9375 392.617188 276.738281 401.300781 C 281.441406 409.804688 285.019531 418.808594 289.375 427.476562 C 291.554688 431.816406 293.988281 436.125 297.09375 439.878906 C 297.214844 440.023438 297.339844 440.164062 297.460938 440.308594 C 298.644531 437.113281 301.679688 433.691406 303.171875 431.726562 L 303.3125 431.539062 C 306.691406 426.984375 310.261719 422.570312 313.910156 418.226562 C 317.242188 414.265625 320.660156 410.386719 324.15625 406.574219 L 325.472656 405.144531 C 327.910156 402.511719 331.007812 398.578125 334.578125 396.695312 C 334.195312 396.015625 333.753906 395.34375 333.242188 394.679688 C 329.898438 390.3125 325.171875 387.144531 320.507812 384.285156 L 317.484375 382.445312 C 306.082031 375.503906 294.859375 368.242188 284.960938 359.222656 C 279.722656 354.449219 274.558594 349.449219 270.160156 343.886719 L 268.601562 341.917969 M 279.757812 327.40625 C 274.417969 327.855469 268.652344 327.75 263.714844 329.488281 C 268.105469 333.628906 272.273438 338.105469 276.554688 342.316406 C 276.9375 339.46875 277.71875 336.652344 278.375 333.875 " fill-opacity="1" fill-rule="evenodd"/><path fill="#f2f2f2" d="M 199.8125 287.300781 C 109.71875 207.769531 202.144531 28.792969 319.359375 52.539062 C 331.222656 56.511719 343.269531 57.886719 355.558594 54.945312 C 417.46875 45.289062 468.117188 97.773438 465.5 158.5 C 465.933594 168.886719 465.851562 179.28125 464.730469 189.628906 C 463.441406 203.222656 459.933594 217.765625 452.109375 229.070312 C 452.015625 236.664062 447.542969 265.140625 446.824219 278.539062 L 446.6875 281.339844 C 445.976562 295.109375 444.433594 309.152344 438.375 321.710938 C 419.742188 355.445312 371.746094 362.679688 337.332031 352.855469 L 335.902344 352.386719 C 329.507812 350.261719 322.261719 347.433594 318.199219 342.082031 C 316.054688 339.257812 319.609375 335.648438 322.558594 336.417969 C 326.363281 337.40625 329.515625 339.722656 333.0625 341.367188 C 356.214844 351.589844 383.59375 348.167969 406.445312 338.617188 L 407.136719 338.328125 C 448.0625 321.730469 436.851562 262.683594 442.238281 229.019531 C 443.464844 186.269531 407.777344 157.152344 380.886719 128.878906 L 380.082031 127.980469 C 377.320312 124.921875 374.402344 121.9375 370.5625 121.285156 C 369.507812 124.472656 366.921875 127.1875 364.523438 129.515625 L 359.09375 135.375 C 353.667969 141.226562 348.226562 147.054688 342.710938 152.832031 C 315.925781 180.015625 288.632812 216.925781 247.34375 219.707031 C 249.882812 222 252.105469 224.625 254.769531 226.785156 C 255.890625 227.90625 254.742188 229.789062 253.238281 229.402344 C 250.433594 228.6875 248.636719 226.027344 246.796875 223.949219 C 224.496094 214.597656 206.179688 249.160156 225.074219 263.46875 C 232.082031 270.882812 252.566406 265.242188 247.828125 274.382812 C 253 290.578125 260.953125 306.867188 274.414062 317.703125 C 278.367188 320.683594 284.535156 322.191406 287.160156 326.578125 C 287.792969 327.636719 287.46875 329.367188 286.28125 329.925781 C 280.5625 332.589844 274.421875 328.109375 270.03125 324.738281 C 246.839844 370.023438 161.8125 319.988281 199.8125 287.300781 Z M 337.601562 66.011719 L 335.28125 65.558594 C 310.507812 60.660156 294.171875 55.8125 267.980469 64.664062 C 209.601562 84.148438 171.964844 146.207031 173.589844 206.527344 C 173.628906 240.792969 190.628906 284.488281 228.929688 289.351562 C 234.714844 289.8125 234.808594 298.785156 229.101562 298.515625 L 228.929688 298.507812 C 219.488281 297.917969 210.351562 294.496094 202.558594 289.234375 C 192.109375 306.144531 202.582031 321.488281 218.863281 328.757812 C 235.363281 337.453125 253 334.683594 264.023438 319.316406 C 253.960938 308.148438 246.546875 291.457031 244.832031 276.652344 C 216.578125 287.601562 195.265625 247.234375 213.648438 225.824219 C 220.117188 216.613281 232.675781 210.851562 243.03125 217.390625 C 287.566406 200.273438 318.664062 163.886719 348.4375 128.242188 L 350.027344 126.4375 C 355.238281 120.554688 367.226562 107.269531 368.554688 105.550781 C 370.046875 103.617188 373.066406 105.359375 373.101562 107.433594 C 373.128906 108.90625 373.046875 110.402344 372.878906 111.894531 C 378.421875 115.46875 382.914062 120.890625 387.050781 125.898438 C 417.917969 150.101562 443.019531 175.445312 450.824219 213.84375 C 455.671875 208.1875 457.871094 200.765625 459.457031 193.679688 C 462.785156 146.914062 453.847656 90.917969 405.558594 70.632812 C 382.347656 59.128906 361.640625 64.398438 337.601562 66.011719 Z M 228.09375 241.636719 C 226.082031 239.84375 239.367188 239.628906 240.621094 241.03125 L 240.910156 241.128906 C 245.664062 242.800781 254.371094 248.1875 250.097656 253.777344 C 244 259.519531 239.75 242.472656 228.09375 241.636719 Z M 228.09375 241.636719 " fill-opacity="1" fill-rule="evenodd"/><path fill="#f2f2f2" d="M 376.910156 299.195312 C 372.410156 297.359375 368.394531 294.300781 365.457031 290.390625 C 364.4375 289.03125 364.171875 287.597656 364.386719 286.28125 C 364.628906 284.808594 365.5 283.46875 366.695312 282.574219 C 367.890625 281.671875 369.382812 281.230469 370.832031 281.453125 C 372.085938 281.652344 373.335938 282.339844 374.328125 283.765625 L 374.53125 284.050781 C 376.277344 286.410156 378.554688 288.34375 381.144531 289.589844 C 383.644531 290.796875 386.4375 291.355469 389.328125 291.03125 C 394.835938 290.410156 398.628906 287.433594 402.664062 283.394531 C 403.164062 282.882812 403.664062 282.355469 404.167969 281.824219 C 404.484375 281.335938 404.925781 281.027344 405.414062 280.863281 C 405.957031 280.683594 406.570312 280.691406 407.136719 280.886719 C 407.675781 281.078125 408.164062 281.4375 408.488281 281.914062 C 408.796875 282.367188 408.972656 282.929688 408.914062 283.570312 C 408.546875 287.757812 406.355469 291.496094 403.242188 294.429688 C 399.789062 297.6875 395.207031 299.941406 390.890625 300.734375 C 386.140625 301.605469 381.296875 300.980469 376.910156 299.195312 Z M 393.132812 234.597656 C 398.1875 237.667969 405.894531 244.828125 400.453125 252.441406 C 394.050781 259.15625 384.835938 251.457031 380.292969 247.976562 C 376.078125 245.28125 371.347656 252.21875 375.253906 255.367188 C 408.078125 279.648438 421.398438 235.402344 395.691406 230.988281 C 392.859375 230.503906 391.808594 233.648438 393.132812 234.597656 Z M 334.308594 206.355469 C 334.871094 199.429688 345.429688 197.851562 346.480469 204.707031 C 347.421875 210.851562 346.316406 216.492188 343.542969 222.023438 C 340.898438 227.300781 334.25 224.839844 333.746094 220.03125 C 333.074219 213.582031 333.964844 210.664062 334.308594 206.355469 Z M 414.703125 203.289062 C 416.175781 201.363281 418.300781 200.046875 420.847656 200.789062 C 428.804688 203.113281 426.457031 214.398438 423.664062 219.894531 C 422.144531 222.878906 417.238281 223.636719 415.019531 221.007812 C 411.402344 216.722656 409.671875 208.167969 414.269531 203.949219 C 414.390625 203.730469 414.53125 203.507812 414.703125 203.289062 Z M 343.433594 176.042969 L 344.6875 175.820312 C 348.582031 175.148438 353.414062 174.503906 356.164062 177.625 C 357.625 179.285156 358.128906 182.359375 356.164062 183.945312 C 352.714844 186.738281 348.902344 185.65625 344.765625 185.890625 C 341.359375 186.085938 338.085938 186.648438 334.804688 187.585938 C 327.605469 189.644531 321.738281 193.394531 315.589844 197.515625 C 314.785156 198.058594 313.960938 197.027344 314.347656 196.273438 C 317.898438 189.324219 324.773438 183.621094 331.664062 180.144531 C 335.339844 178.289062 339.363281 176.746094 343.433594 176.042969 Z M 407.449219 172.929688 L 408.40625 173.125 C 418.878906 175.3125 432.480469 179.679688 437.441406 189.957031 C 437.628906 191.410156 437.429688 191.71875 437.265625 191.925781 L 437.214844 191.992188 C 437.078125 192.164062 436.972656 192.40625 436.34375 192.601562 C 436.167969 192.558594 435.992188 192.515625 435.8125 192.46875 C 433.539062 191.875 431.742188 191.054688 430 190.203125 L 428.113281 189.273438 C 425.921875 188.203125 423.714844 187.167969 421.375 186.402344 C 416.378906 184.777344 411.238281 183.628906 406.019531 183.019531 C 404.886719 182.882812 403.800781 182.503906 402.941406 181.851562 C 402.121094 181.230469 401.5 180.371094 401.214844 179.226562 C 400.847656 177.75 400.953125 176.632812 401.746094 175.300781 C 402.34375 174.296875 403.199219 173.605469 404.179688 173.207031 C 405.179688 172.800781 406.316406 172.703125 407.449219 172.929688 Z M 407.449219 172.929688 " fill-opacity="1" fill-rule="evenodd"/><path fill="#f2f2f2" d="M 453.054688 238.671875 C 444.925781 247.066406 431.355469 249.472656 420.539062 244.972656 C 392.769531 233.378906 406.359375 197.222656 427.777344 187.511719 C 430.457031 186.847656 434.027344 185.265625 437.289062 184.910156 C 437.582031 184.765625 438.222656 185.179688 439 184.785156 C 462.617188 187.421875 467.996094 224.046875 453.054688 238.671875 M 363.484375 240.820312 C 354.367188 252.90625 337.414062 256.632812 323.566406 251.015625 C 296.207031 240.25 305.910156 208.1875 324.628906 195.617188 C 364.171875 180.773438 380.5 218.546875 363.484375 240.820312 M 304.171875 214.050781 C 304.148438 214.039062 304.121094 214.035156 304.097656 214.019531 C 304.242188 213.957031 304.382812 213.894531 304.527344 213.828125 C 304.484375 213.953125 304.433594 214.070312 304.386719 214.195312 C 304.316406 214.148438 304.253906 214.089844 304.171875 214.050781 M 471.878906 200.992188 C 469.644531 200.996094 466.421875 201.363281 464.574219 202.910156 C 460.015625 187.554688 443.195312 173.34375 428.566406 183.707031 C 417.046875 187.410156 408.5 195.617188 403.640625 206.53125 C 394.878906 201.324219 381.105469 203.546875 373.511719 210.433594 C 368.535156 194.007812 356.289062 188.257812 341.71875 187.410156 C 325.8125 184.804688 309.960938 200.238281 305.011719 212.617188 C 300.898438 212.152344 294.753906 210.84375 290.882812 213.378906 C 265.769531 206.800781 221.863281 203.171875 216.757812 206.828125 C 213.121094 208.222656 211.125 216.804688 216.207031 217.265625 C 220.632812 216.636719 215.6875 210.980469 220.152344 210.363281 C 243.9375 208.886719 267.027344 213.675781 290.558594 215.683594 C 292.664062 218.507812 299.449219 219.449219 303.070312 218.316406 C 297.367188 239.320312 309.683594 253.609375 328.132812 257.890625 C 356.699219 264.445312 381.554688 238.910156 374.085938 212.355469 C 382.738281 208.050781 392.691406 208.238281 402.121094 210.503906 C 386.367188 268.429688 479.742188 265.828125 465.160156 204.894531 C 474.863281 209.71875 476.972656 201.964844 471.878906 200.992188 " fill-opacity="1" fill-rule="evenodd"/><path fill="#f2f2f2" d="M 592.304688 550.957031 C 588.035156 546.953125 582.699219 544.816406 577.09375 544.816406 C 565.351562 544.816406 555.742188 554.429688 555.742188 566.179688 L 555.742188 595.558594 C 555.742188 597.160156 556.808594 598.226562 558.410156 598.226562 C 561.878906 598.226562 563.75 596.089844 565.082031 594.753906 C 566.152344 593.421875 566.683594 592.886719 567.75 592.886719 C 568.820312 592.886719 569.351562 593.421875 570.421875 594.753906 C 571.753906 596.089844 573.625 598.226562 577.09375 598.226562 C 580.5625 598.226562 582.429688 596.089844 583.765625 594.753906 C 584.832031 593.421875 585.367188 592.886719 586.433594 592.886719 C 587.5 592.886719 588.035156 593.421875 589.101562 594.753906 C 590.4375 596.089844 592.304688 598.226562 595.773438 598.226562 C 597.375 598.226562 598.445312 597.160156 598.445312 595.558594 L 598.445312 566.179688 C 598.445312 560.570312 596.308594 555.230469 592.304688 550.957031 Z M 593.105469 591.015625 C 592.570312 590.484375 592.039062 589.949219 591.503906 589.414062 C 591.503906 589.414062 591.503906 589.414062 591.238281 589.148438 C 590.972656 589.148438 590.972656 588.878906 590.703125 588.878906 C 590.703125 588.878906 590.4375 588.878906 590.4375 588.613281 C 590.171875 588.613281 590.171875 588.347656 589.902344 588.347656 L 589.636719 588.078125 C 589.371094 588.078125 589.371094 587.8125 589.101562 587.8125 C 588.835938 587.8125 588.835938 587.8125 588.570312 587.546875 C 588.300781 587.546875 588.300781 587.546875 588.035156 587.277344 C 587.769531 587.277344 587.769531 587.277344 587.5 587.277344 C 587.234375 587.277344 586.699219 587.277344 586.167969 587.277344 C 582.699219 587.277344 580.828125 589.414062 579.496094 590.75 C 578.425781 592.085938 577.894531 592.621094 576.824219 592.621094 C 575.757812 592.621094 575.222656 592.085938 574.15625 590.75 C 573.089844 589.679688 571.222656 587.546875 567.75 587.546875 C 564.28125 587.546875 562.414062 589.679688 561.078125 591.015625 L 561.078125 566.179688 C 561.078125 557.367188 568.285156 550.15625 577.09375 550.15625 C 581.363281 550.15625 585.367188 551.757812 588.300781 554.964844 C 591.503906 557.902344 593.105469 561.90625 593.105469 566.179688 Z M 593.105469 591.015625 " fill-opacity="1" fill-rule="nonzero"/><path fill="#f2f2f2" d="M 574.425781 568.851562 C 575.898438 568.851562 577.09375 567.652344 577.09375 566.179688 C 577.09375 564.707031 575.898438 563.507812 574.425781 563.507812 C 572.949219 563.507812 571.753906 564.707031 571.753906 566.179688 C 571.753906 567.652344 572.949219 568.851562 574.425781 568.851562 Z M 574.425781 568.851562 " fill-opacity="1" fill-rule="nonzero"/><path fill="#f2f2f2" d="M 587.769531 568.851562 C 589.242188 568.851562 590.4375 567.652344 590.4375 566.179688 C 590.4375 564.707031 589.242188 563.507812 587.769531 563.507812 C 586.292969 563.507812 585.097656 564.707031 585.097656 566.179688 C 585.097656 567.652344 586.292969 568.851562 587.769531 568.851562 Z M 587.769531 568.851562 " fill-opacity="1" fill-rule="nonzero"/></svg>